/* XPM */
static char *result[] = {
/* columns rows colors chars-per-pixel */
"16 24 12 1 ",
"  c #000001",
". c gray19",
"X c gray22",
"o c #D03800",
"O c none",
"+ c #A08850",
"@ c #C88078",
"# c #B80088",
"$ c #F838C0",
"% c #F8B890",
"& c #F0C0A0",
"* c #F8F8F8",
/* pixels */
"OOOOOOOOOOOOO##O",
"OOOOOOOOOOOO#$&#",
"OOOO       O#$$#",
"OO           ##O",
"O         *   OO",
"O              O",
"oo             O",
"O%oo           O",
"O% %o          O",
"O% %o          O",
"o% %o         OO",
"Oo %o         OO",
"O oo         OOO",
"OO        .XOOOO",
"OOO.X.@&@X*XOOOO",
"OOO%X.@@@XX OOOO",
"OOO.+ #$$  XOOOO",
"OOOO..#*#XXOOOOO",
"OO  #.###XOOOOOO",
"O   ##@@&# OOOOO",
"O     @@@  OOOOO",
"O   ####$$ OOOOO",
"O   ###$*$OOOOOO",
"OO       OOOOOOO"
};
