/* XPM */
static char *result[] = {
/* columns rows colors chars-per-pixel */
"16 24 12 1 ",
"  c #000001",
". c gray19",
"X c gray22",
"o c #D03800",
"O c none",
"+ c #A08850",
"@ c #C88078",
"# c #B80088",
"$ c #F838C0",
"% c #F8B890",
"& c #F0C0A0",
"* c #F8F8F8",
/* pixels */
"OOOOOOOOOOOOOOOO",
"OOOOOOOOOOOO##OO",
"OOOO       #$&#O",
"OO           $#O",
"O         *   OO",
"o              O",
"Ooo            O",
"O %oooo        O",
"O %% %%o       O",
"O %% %%o       O",
"o %% %%o      OO",
" oo% %%o      OO",
"O  oooo      OOO",
"OO###     ..$OOO",
"OO#*$@&@.X*.#OOO",
"OO###@@.XXX OOOO",
"#$O.+      .OOOO",
"#$ @..X@@X.OOOOO",
"##@@@.X@&@$OOOOO",
"###@    @@#$OOOO",
" ##      ##*OOOO",
"         ##$OOOO",
"O       ##$$OOOO",
"OOO       OOOOOO"
};
