/* XPM */
static char *result[] = {
/* columns rows colors chars-per-pixel */
"16 24 12 1 ",
"  c #000001",
". c gray19",
"X c gray22",
"o c #D03800",
"O c none",
"+ c #A08850",
"@ c #C88078",
"# c #B80088",
"$ c #F838C0",
"% c #F8B890",
"& c #F0C0A0",
"* c #F8F8F8",
/* pixels */
"O##OOOOOOOOOOOOO",
"#$&#OOOOOOOOOOOO",
"#$$#O       OOOO",
"O##           OO",
"OO         *   O",
"O              O",
"O             oo",
"O           oo%O",
"O          o% %O",
"O          o% %O",
"OO         o% %o",
"OO         o% oO",
"OOO         oo O",
"OOOO.         OO",
"OOOO.X.@@&X&XOOO",
"OOOO X.@@&XX%OOO",
"OOOO.  #$$ +XOOO",
"OOOO ..#*$XXOOOO",
"OO    .###X#OOOO",
"O     #@@&## OOO",
"O      @@@   OOO",
"O     ###$*$ OOO",
"OO    ####$# OOO",
"OOOO        OOOO"
};
