/* XPM */
static char *result[] = {
/* columns rows colors chars-per-pixel */
"16 24 9 1 ",
"  c #000001",
". c gray19",
"X c gray22",
"o c none",
"O c #C88078",
"+ c #B80088",
"@ c #F838C0",
"# c #F0C0A0",
"$ c #F8F8F8",
/* pixels */
"oooooooooooooooo",
"oooo       ooooo",
"oo           ooo",
"o         $   oo",
"           ++  o",
"          +@#+ o",
"          +@@+ o",
"           ++  o",
"               o",
"               o",
"o             oo",
"oO          .ooo",
"oOO        .OOoo",
"ooO .XXXXXXO#Ooo",
"ooo .XXX$XX+@@oo",
"ooo.       +#@oo",
"oooO...XXX.+++oo",
"oo OO...X.OOoooo",
"o  OOO   +++oooo",
"   OO#      oooo",
"   OO#    oooooo",
"   +@@  oooooooo",
"o  +++oooooooooo",
"oo +++oooooooooo"
};
