/* XPM */
static char *result[] = {
/* columns rows colors chars-per-pixel */
"16 16 8 1 ",
"  c none",
". c gray91",
"X c #101010",
"o c #606060",
"O c gray69",
"+ c #888888",
"@ c gray25",
"# c white",
/* pixels */
"             .  ",
"     XXXXXX X.. ",
"   XXooooOOXOX  ",
"  Xo+.+o@.XOXX  ",
"  X+++++@.XXOX  ",
" X+..+++@OOOO@X ",
" X+..++++@OO@@X ",
" X+++++++o@@@@X ",
" X+++++++oo@@@X ",
" X++++++ooo@@@X ",
" Xo++++ooo@@@@X ",
"  Xooooooo@@@X  ",
"  X@oooo@@@@@X  ",
"   XX@@@@@@XX   ",
"     XXXXXX     ",
"                "
};
