/* XPM */
static char *result[] = {
/* columns rows colors chars-per-pixel */
"16 16 9 1 ",
"  c none",
". c gray25",
"X c #606060",
"o c #888888",
"O c #989898",
"+ c gray72",
"@ c #D0D0D0",
"# c gray91",
"$ c white",
/* pixels */
"  .XooO+@@+OoX  ",
"  XooO+@#@+OoX  ",
"X.XXoO+@@@@+Oo.X",
"XoooOO@@#@+OOooX",
"OOOOO+@##@@+OOOO",
"+O+++@@@##@@++O+",
"@+@+@+@##@#@+@+@",
"#@@@@@######@@@#",
"@@##@@#####@##@@",
"@@@+@+@###@@+@@@",
"O++O+O+@@#@+O++O",
"OOOOO++#@@+O+OOO",
"XoooOO++@@@OOooX",
"X.XooO@@#@+OoX.X",
"  XXoO+##@+OoX  ",
"  .XoO+@##@Oo.  "
};
