/* XPM */
static char *result[] = {
/* columns rows colors chars-per-pixel */
"16 16 9 1 ",
"  c #888888",
". c #989898",
"X c #606060",
"o c none",
"O c gray72",
"+ c gray25",
"@ c #D0D0D0",
"# c gray91",
"$ c white",
/* pixels */
"   .   Xoooooooo",
".......   Xooooo",
"OO.O.O....  X+oo",
"@@OO@OOOO...   X",
"#@@@#@@@OOO.. Xo",
"#@#####@@@OO.. X",
"##########@@. Xo",
"#########@@O. XX",
"########@@OOO. X",
"@#####@@@@@OO. o",
"#@##@@@@OOOO... ",
"@@@@@@@OOO...  X",
"@OOOOOOO....  Xo",
".........   X+oo",
"  .  .    Xooooo",
"++ XX  Xoooooooo"
};
