/* XPM */
static char *result[] = {
/* columns rows colors chars-per-pixel */
"16 16 6 1 ",
"  c #F86800",
". c #D00800",
"X c #F8B000",
"o c #F8F858",
"O c #F8F8F8",
"+ c white",
/* pixels */
"  ...   .  ...  ",
" X   X    X    X",
"XXXX XX XXoX XXX",
"ooooXoX oooX oXo",
"OooOoOoXOoOoXooo",
"OOOoOOOoOOOOXOOo",
"OOOOOOOOOOOOOOOO",
"OOOOOOOOOOOOOOOO",
"OOOOOOOOOOOOOOOO",
"OOOOOOOOOOOOOOOO",
"OOoOoOOoOOOOoOOO",
"OoOOoOOOOoOOoOoO",
"oXooXooooXoOoooo",
"X XX XXoXXooXoXX",
"   X  XXX X XX  ",
" .  .    . .    "
};
