/* XPM */
static char *result[] = {
/* columns rows colors chars-per-pixel */
"16 16 4 1 ",
"  c #30A8D8",
". c #30C0E8",
"X c #58D8F8",
"o c #C8E8F8",
/* pixels */
"                ",
" ...............",
" .oooXXXXXX.....",
" .ooXX..........",
" .oXX...........",
" .oX..........X.",
" .XX..........X.",
" .X..       ..X.",
" .X.         .X.",
" .X.         XX.",
" .X.        .XX.",
" ...       .XXo.",
" ...      .XXXo.",
" ...    .XXXXoo.",
" ....XXXXXooooo.",
" ....       ...."
};
