/* XPM */
static char *result[] = {
/* columns rows colors chars-per-pixel */
"16 16 8 1 ",
"  c #205810",
". c #488808",
"X c #68B018",
"o c #98D838",
"O c #B8F850",
"+ c #E0F8A8",
"@ c #F8F8F8",
"# c white",
/* pixels */
"      ...       ",
" .   .XXX.      ",
"  X..XXooX.  X  ",
"   .XoOOoX...   ",
"...XooOOOoX.X . ",
"  .XoOO+OooXX.  ",
"   .oo+@+OOooX. ",
"  .XoOO+O++OoX. ",
" ..XOO+O@OOOOoX.",
"  .oO+@+OOO+@OX ",
"  .oO++O+O+OooX.",
"  .XoOOO+OOOoX. ",
"  .XXooOOoooXX. ",
"   .XXXooXXX..  ",
" X   .XXX...    ",
"      ...       "
};
