/* XPM */
static char *result[] = {
/* columns rows colors chars-per-pixel */
"16 16 8 1 ",
"  c none",
". c #205810",
"X c #488808",
"o c #68B018",
"O c #98D838",
"+ c #E0F8A8",
"@ c #B8F850",
"# c white",
/* pixels */
" .  ....... .  .",
". .....X......  ",
".. ...XoXX... . ",
" ....XooOoX.....",
"X...XOoO+OX. .. ",
"....X@O@OoX.....",
". ..oO+@@OXX....",
"...XXO@+@@ooXXX.",
"..XoO@++@+OOoOoX",
"...XoO@@@+@+O@o.",
". ..XOOO+@+@oOXX",
".....oooO@@oXXX.",
" ....XXXoOOXX...",
"...X....XooX.X. ",
"  ......XX.... .",
"  . .. .... ..  "
};
