/* XPM */
static char *result[] = {
/* columns rows colors chars-per-pixel */
"16 16 8 1 ",
"  c none",
". c #F8F8F8",
"X c #103010",
"o c #205810",
"O c #488808",
"+ c #888888",
"@ c #68B018",
"# c white",
/* pixels */
"                ",
"            .   ",
"      XXXX X..  ",
"    XXoO++X+X   ",
"   XoOOo.X+XX   ",
"   X@.@o.XX+X   ",
"  X@@@@o++++XX  ",
"  X@.@@@o++ooX  ",
"  X@.@@@@ooooX  ",
"  X@@@@@OOOooX  ",
"  XO@@@OOOOooX  ",
"   XOOOOOOooX   ",
"   XooOOOoooX   ",
"    XXooooXX    ",
"      XXXX      ",
"                "
};
