/* XPM */
static char *result[] = {
/* columns rows colors chars-per-pixel */
"16 16 9 1 ",
"  c none",
". c #205810",
"X c #488808",
"o c #68B018",
"O c #98D838",
"+ c #E0F8A8",
"@ c #B8F850",
"# c #F8F8F8",
"$ c white",
/* pixels */
"                ",
"                ",
"  ..XX          ",
"..oXXooX        ",
"ooOooOooooX     ",
"OOOOOOOOOoooX.  ",
"+@@@@@@@OOOOooX ",
"+++++++@@@@OOooX",
"#+++#+++@@@OOoX ",
"++@@+@@@@OOOoooX",
"@@O@O@OOOOooX.  ",
"OOOOOOOoooX     ",
"oooOoooX        ",
"X..XXX          ",
"                ",
"                "
};
