/* XPM */
static char *result[] = {
/* columns rows colors chars-per-pixel */
"16 16 9 1 ",
"  c #68B018",
". c #98D838",
"X c #488808",
"o c none",
"O c #205810",
"+ c #E0F8A8",
"@ c #B8F850",
"# c #F8F8F8",
"$ c white",
/* pixels */
"  .  .    Xooooo",
".........   XOoo",
"+@@@@@@@....  Xo",
"+++++++@@@...  X",
"#+##++++@@@@... ",
"+#####+++++@@. o",
"########++@@.. X",
"##########++@@. ",
"###########++@. ",
"#########+++@.XX",
"##########+@. Xo",
"#+#####+++@@.. X",
"#+++#+++@@@.. Xo",
"++@@+@@@@...   X",
"@@.@.@....  XOoo",
".......   Xooooo"
};
