/* XPM */
static char *result[] = {
/* columns rows colors chars-per-pixel */
"16 16 9 1 ",
"  c #488808",
". c #68B018",
"X c #98D838",
"o c #E0F8A8",
"O c #F8F8F8",
"+ c #B8F850",
"@ c #205810",
"# c none",
"$ c white",
/* pixels */
" .XooOOOOOOOo+X ",
"@.X+oOOOOOooo+X ",
" XX++oOOOOOo+XX.",
"..X+oOOOOOOo++X ",
" .X+oOOOOOOOoX. ",
" XX+oOOOOOOooX. ",
"#.X++oOoOOOo+X. ",
"# .++oOoOOOo+X #",
"# .X+oOOoOooX. #",
"##.X+oOoooo+X. #",
"## X++ooo+o+X.##",
"###.X++o+X+X. ##",
"###.X+X+XX+X. ##",
"### .X.XX.X. ###",
"### #.  . ..####",
"##### # ##.#####"
};
