/* XPM */
static char *result[] = {
/* columns rows colors chars-per-pixel */
"16 16 8 1 ",
"  c none",
". c #802038",
"X c #381028",
"o c #C02878",
"O c #F05098",
"+ c #F880C8",
"@ c #F8B8E0",
"# c white",
/* pixels */
"          . X   ",
"     .X .. ...  ",
"   XX .  ....   ",
"   .X.........X ",
"  . ..o..o.. .. ",
"   ....ooO....  ",
"   ..ooOO+o.o.. ",
"  ...oO@++Oo..  ",
"    ..o+@@+Oo.  ",
"  . ..oO@+OOOo. ",
"  X ...oO++oo.  ",
"    X.o.oOOOo.  ",
"   X ....ooo.X  ",
"      X..... .  ",
"   X    .X      ",
"          .     "
};
