/* XPM */
static char *result[] = {
/* columns rows colors chars-per-pixel */
"16 16 9 1 ",
"  c none",
". c #802038",
"X c #C02878",
"o c #F05098",
"O c #F880C8",
"+ c #F8D8F0",
"@ c #F8B8E0",
"# c #F8F8F8",
"$ c white",
/* pixels */
"  ..XX          ",
"..oXXooX        ",
"ooOooOooooX     ",
"OOOOOOOOOoooX.  ",
"+@@@@@@@OOOOooX ",
"+++++++@@@@OOooX",
"#+##+++++@@@OOOo",
"+#####++++++@Oo ",
"########++@@OoX ",
"#+#####++++@OOoX",
"#+++#+++@@@OOoX ",
"++@@+@@@@OOOoooX",
"@@O@O@OOOOooX.  ",
"OOOOOOOoooX     ",
"oooOoooX        ",
"X..XXX          "
};
