/* XPM */
static char *result[] = {
/* columns rows colors chars-per-pixel */
"16 16 9 1 ",
"  c none",
". c #C02878",
"X c #F05098",
"o c #F880C8",
"O c #802038",
"+ c #F8B8E0",
"@ c #F8D8F0",
"# c #F8F8F8",
"$ c white",
/* pixels */
"   .X .XX. . .  ",
"  .XoXXoo..X.X  ",
" OXXooo++oXoXXO ",
" .Xoo+o+@+oooX. ",
" Xoo+++@@@++ooX ",
".Xoo+@+@#@@++oX.",
"XXo++@@##@#@+ooX",
"Xoo++@@####@++oX",
"Xo++@@#####@@+oX",
"Xo+@@@######@+oo",
"oo+@@#######@++o",
"Xo+@@########@oo",
"Xo+@########@++o",
"oo+@########@+oo",
"Xo+@@######@@@+o",
"Xo@@#@#######@+o"
};
