/* XPM */
static char *result[] = {
/* columns rows colors chars-per-pixel */
"16 16 9 1 ",
"  c none",
". c #C02878",
"X c #F05098",
"o c #F880C8",
"O c #802038",
"+ c #F8B8E0",
"@ c #F8D8F0",
"# c #F8F8F8",
"$ c white",
/* pixels */
"     .XXXXoXXoXX",
"  O.XXXooooooooo",
" .XXoooo+++++++@",
".XXooo+++@@@@@@@",
"Xooo++++@@@@##@#",
" Xo++@@@@@#####@",
".Xoo++@@########",
"Xo++@@##########",
"Xo+@@###########",
"..o+@@@#########",
" .Xo+@##########",
".Xoo++@@@#####@#",
" .Xoo+++@@@#@@@#",
".XXXooo++++@++@@",
"  O.XXoooo+o+o++",
"     .XXXooooooo"
};
