/* XPM */
static char *result[] = {
/* columns rows colors chars-per-pixel */
"16 16 8 1 ",
"  c #D00800",
". c #F86800",
"X c #F8B000",
"o c #F8F858",
"O c #F8F8F8",
"+ c #800800",
"@ c #501000",
"# c white",
/* pixels */
" .XXoOOOOOOoX. +",
" .XoooOOOOooX. +",
"+XXXoOOOOOooXX. ",
"@.X.XooOOoXXX.  ",
"+..oOOOOOOoXXX +",
" .XooOOOOOOoXX.@",
"+..XXoOOOOooX. @",
"@.XXoOOOOOOoX. +",
"@.XooOoOOoX... +",
"+.XXoOOOOOoXX.. ",
"+..XoOOOOOOoXX. ",
"  ..XoOOOOoX.. @",
" .XXooOOOoOoX. +",
"+..XoOoOOOooX.  ",
"@ ..XoOOOOooXX. ",
"@..XoOOOOOOoX.  "
};
