/* XPM */
static char *result[] = {
/* columns rows colors chars-per-pixel */
"16 16 9 1 ",
"  c none",
". c #501000",
"X c #800800",
"o c #D00800",
"O c #F86800",
"+ c #F8B000",
"@ c #F8F858",
"# c #F8F8F8",
"$ c white",
/* pixels */
" .XoO+@@#@#@+OX ",
" X.oO++@#@++OOo ",
" oXoO+@@#@@@+OX ",
" OooOO++@+++OoX ",
" oOoO+@@##@OOoo ",
" XoO+@@##@@+OoX ",
" XoOO+@@@++OOoo ",
"  ooO+@##@++OoO ",
" .oOOO++#@@+OO. ",
" XoOO++@#@++OXX ",
" X.O++@##@+OOXX ",
" XXoOO+@@+OOooX ",
" oXoO+@##@++Ooo ",
" oooO+@@#@+OOoO ",
"  oO++@@@+OOoOo ",
"  oOO+@##@+OOoX "
};
