/* XPM */
static char *result[] = {
/* columns rows colors chars-per-pixel */
"16 16 7 1 ",
"  c none",
". c gray44",
"X c gray22",
"o c #808081",
"O c #989898",
"+ c gray72",
"@ c white",
/* pixels */
"                ",
"                ",
"        .       ",
"   X   . .X     ",
"     X .... X   ",
"     ...oo.X    ",
"    ..ooO+o.    ",
"    X.o+Oo...   ",
"    ...o+.o.    ",
"   . .oOo..     ",
"    .o.o.X..X   ",
"    . .... .    ",
"     X.. .X     ",
"       X.       ",
"                ",
"                "
};
