/* XPM */
static char *result[] = {
/* columns rows colors chars-per-pixel */
"16 16 9 1 ",
"  c none",
". c #808081",
"X c #989898",
"o c gray72",
"O c gray44",
"+ c #D0D0D0",
"@ c gray94",
"# c #F8F8F8",
"$ c white",
/* pixels */
"        .XXXoXXX",
"     .XXXooooooo",
"  O.XXoooo+o+o++",
".XXXooo++++@++@@",
" .Xoo+++@@@#@@@#",
".Xoo++@@@#####@#",
" .Xo@@##########",
"..Xo+@@#########",
".Xo+++@@########",
" Xo++@@@@@#####@",
"Xooo++++@@@@##@#",
".XXooo+++@@@@@@@",
" .XXoooo+++++++@",
"  O.XXXooooooooo",
"     .XXXXoXXoXX",
"        .XX..XOO"
};
