/* XPM */
static char *result[] = {
/* columns rows colors chars-per-pixel */
"16 24 15 1 ",
"  c #000001",
". c #000058",
"X c #606060",
"o c #D03800",
"O c none",
"+ c #A08850",
"@ c #0000F8",
"# c #B80088",
"$ c #F838C0",
"% c #58A0F8",
"& c #A098A0",
"* c gray69",
"= c #F8B890",
"- c gray91",
"; c #F8F8F8",
/* pixels */
"OOOOOOOOOOOOOOOO",
"OOOOOOOOOOOOOOOO",
"OOOOOOO##OOOOOOO",
"OOOOOO#$;#OOOOOO",
"OOOO**----*OOOOO",
"OOX*--------*OOO",
"OX*-------;--*OO",
"X*------------*O",
"X**ooooooooo--*O",
"X*o+++++++++o-*O",
"X*o+++++++++o-*O",
"X*o+++++++++o-*O",
"X*o+++++++++o*OO",
"OXo+++++++++oXOO",
"OOXoooooooooXOOO",
"OO& XXXXXXX.;OOO",
"O&;  .@@@@..&;OO",
"O#$ .@%%;%@ #$OO",
"O##.$ +=+ $.##OO",
"OO $;$.@@$;$OOOO",
"O  #$#..@#$#OOOO",
"O  ###   ###OOOO",
"OO  #     # OOOO",
"OOO        OOOOO"
};
