/* XPM */
static char *result[] = {
/* columns rows colors chars-per-pixel */
"16 24 16 1 ",
"  c black",
". c #000001",
"X c #000058",
"o c #606060",
"O c #D03800",
"+ c none",
"@ c #A08850",
"# c #0000F8",
"$ c #B80088",
"% c #F838C0",
"& c #58A0F8",
"* c #A098A0",
"= c gray69",
"- c #F8B890",
"; c gray91",
": c #F8F8F8",
/* pixels */
"++++++++++++++++",
"++++++++++++++++",
"++++++++++++++++",
"++++++++++++++++",
"++++=;;;;;=+++++",
"++=OOOOOOOOO=+++",
"+=O         O=++",
"o=O         O=o+",
"o=O         O=o+",
"o=OOOOOOOOOOO=o+",
"o=;;;;;;;;;;;=o+",
"o==;;;;;;;;;;=o+",
".o==;&###&;;=o++",
"..o=X##&&#X=o+++",
"+.*.##&&&:#X:+++",
".*:.##&&&&#X*:++",
".**...@-@..X**++",
".$%.X##&&##.$%++",
".$$X%#####%X$$++",
"...%:%X##%:%.+++",
"+..$%$XX#$%$++++",
"+..$$$...$$$++++",
"++..$.....$.++++",
"+++........+++++"
};
