/* XPM */
static char *result[] = {
/* columns rows colors chars-per-pixel */
"16 24 14 1 ",
"  c #000001",
". c #000058",
"X c #606060",
"o c #D03800",
"O c none",
"+ c #A08850",
"@ c #0000F8",
"# c #B80088",
"$ c #F838C0",
"% c #A098A0",
"& c gray69",
"* c #F8B890",
"= c gray91",
"- c #F8F8F8",
/* pixels */
"OOOOOOOOOOOOOOOO",
"OOOOOOOOOOOO##OO",
"OOOOX&====&#$-#O",
"OOX&========&$#O",
"OX&=======-==&OO",
"o&============&O",
"Ooo&==========&O",
"O *oooo=======&O",
"O ** **o======&O",
"O ** **o======XO",
"o ** **o=====XOO",
"Xoo* **o====&XOO",
"OXXooooX&&&XXOOO",
"OO###XXXXX..$OOO",
"OO#-$%-%.@-.#OOO",
"OO###%%.@@@ OOOO",
"#$O.+      .OOOO",
"#$ %..@%%@.OOOOO",
"##%%%.@%-%$OOOOO",
"###%    %%#$OOOO",
" ##      ##-OOOO",
"         ##$OOOO",
"O       ##$$OOOO",
"OOO       OOOOOO"
};
