/* XPM */
static char *result[] = {
/* columns rows colors chars-per-pixel */
"16 24 14 1 ",
"  c #000001",
". c #000058",
"X c #606060",
"o c #D03800",
"O c none",
"+ c #A08850",
"@ c #0000F8",
"# c #B80088",
"$ c #F838C0",
"% c #A098A0",
"& c gray69",
"* c #F8B890",
"= c gray91",
"- c #F8F8F8",
/* pixels */
"O##OOOOOOOOOOOOO",
"#$-#OOOOOOOOOOOO",
"#$$#O&&====&OOOO",
"O##X&========&OO",
"OOX&=======-==&O",
"OX&============O",
"OX&===========oo",
"OX&=========oo*O",
"OX&========o* *O",
"OX&&=======o* *O",
"OOX&=======o* *o",
"OOXX&======o* oO",
"OOOXX&&===&XooXO",
"OOOO.XXXXXXXXXOO",
"OOOO.@.%%-@-@OOO",
"OOOO @.%%-@@*OOO",
"OOOO.  #$$ +@OOO",
"OOOO ..#-$@@OOOO",
"OO    .###@#OOOO",
"O     #%%-## OOO",
"O      %%%   OOO",
"O     ###$-$ OOO",
"OO    ####$# OOO",
"OOOO        OOOO"
};
