/* XPM */
static char *result[] = {
/* columns rows colors chars-per-pixel */
"16 24 12 1 ",
"  c #000001",
". c #000058",
"X c #606060",
"o c none",
"O c #0000F8",
"+ c #B80088",
"@ c #F838C0",
"# c #58A0F8",
"$ c #A098A0",
"% c gray69",
"& c gray91",
"* c #F8F8F8",
/* pixels */
"oooooooooooooooo",
"oooooooooooooooo",
"oooo%&&&&&%ooooo",
"ooX%&&&&&&&&%ooo",
"oX%&&&&&&&*&&%oo",
"X%&&&&&&&&&&&&%o",
"X%&&&&&++&&&&&%o",
"X%&&&&+@*+&&&&%o",
"X%%&&%+@@+&&&&%o",
"XX%%&%X++%&&&%%o",
"oXX%%%XXX&&&%Xoo",
"oXXXX%%%%%%%XXoo",
"ooXXXXXXXXXXXooo",
"o$$ XXXXXXX.$$oo",
"o$* .OO##OO.$*oo",
"o+@ .OO#*#O +@oo",
"o++.       .++oo",
"ooo$..OO#O.$oooo",
"oo $$...O.$*oooo",
"o  $$*   $$* ooo",
"   $$$   $$$ ooo",
"   ++@   ++@ ooo",
"o  +++   +++oooo",
"oo        oooooo"
};
