/* XPM */
static char *result[] = {
/* columns rows colors chars-per-pixel */
"16 24 12 1 ",
"  c #000001",
". c #000058",
"X c #606060",
"o c none",
"O c #0000F8",
"+ c #B80088",
"@ c #F838C0",
"# c #58A0F8",
"$ c #A098A0",
"% c gray69",
"& c gray91",
"* c #F8F8F8",
/* pixels */
"oooooooooooooooo",
"oooo%&&&&&%ooooo",
"ooX%&&&&&&&&%ooo",
"oX%&&&&&&&*&&%oo",
"X%&&&&&&&&&++&%o",
"X%&&&&&&&&+@*+%o",
"X%&&&&&&&&+@@+%o",
"X%%&&&&&&&%++&%o",
"XX%%&&&&&&&%%%Xo",
"XXX%%&&&&&%%%%Xo",
"oXXXX%%%%%%%XXoo",
"o$XXXXXXXXXX.ooo",
"o$$  XXXXXX.$$oo",
"oo$ .OO##OO$*$oo",
"ooo .OO#*#O+@@oo",
"ooo.       +*@oo",
"ooo$...OOO.+++oo",
"oo $$...O.$$oooo",
"o  $$$   +++oooo",
"   $$*      oooo",
"   $$*    oooooo",
"   +@@  oooooooo",
"o  +++oooooooooo",
"oo +++oooooooooo"
};
