/* XPM */
static char *result[] = {
/* columns rows colors chars-per-pixel */
"16 16 4 1 ",
"  c #305830",
". c #307838",
"X c #589030",
"o c #78A858",
/* pixels */
"                ",
"................",
"X.X.X.X.X.X.X.X.",
"XXXXXX.XXXXXXX.X",
"oXo.o.X.oXo.o.X.",
".o.X.XoX.o.X.XoX",
"X.XoXo.oX.XoXo.o",
"oXo.o.X.oXo.o.X.",
"X.XoXo.oX.XoXo.o",
"oXo.o.X.oXo.o.X.",
".o.X.XoX.o.X.XoX",
"X.XoXo.oX.XoXo.o",
"oXo.o.X.oXo.o.X.",
".o.X.XoX.o.X.XoX",
"X.XoXo.oX.XoXo.o",
"oXo.o.X.oXo.o.X."
};
