/* XPM */
static char *result[] = {
/* columns rows colors chars-per-pixel */
"16 24 16 1 ",
"  c black",
". c #000001",
"X c #000030",
"o c #000058",
"O c #000070",
"+ c #D03800",
"@ c #A08850",
"# c #C88078",
"$ c #0000F8",
"% c #B80088",
"& c #F838C0",
"* c none",
"= c #58A0F8",
"- c #F8B890",
"; c #F0C0A0",
": c white",
/* pixels */
"****************",
"****************",
"****************",
"****************",
"****O$$$$$O*****",
"**O+++++++++O***",
"*O+         +O**",
"XO+         +OX*",
"XO+         +OX*",
"XO+++++++++++OX*",
"XO$$$$$$$$$$$OX*",
"XOO$$$$$$$$$$OX*",
".XOO$=$$$=$$OX**",
"..XOo$$==$oOX***",
"*.#.$$===:$o;***",
".#;.$$====$o#;**",
".##...@-@..o##**",
".%&.o$$==$$.%&**",
".%%o&$$$$$&o%%**",
"...&:&o$$&:&.***",
"*..%&%oo$%&%****",
"*..%%%...%%%****",
"**..%.....%.****",
"***........*****"
};
