/* XPM */
static char *result[] = {
/* columns rows colors chars-per-pixel */
"16 24 15 1 ",
"  c #000001",
". c #000030",
"X c #000058",
"o c #000070",
"O c #D03800",
"+ c #A08850",
"@ c #C88078",
"# c #0000F8",
"$ c #B80088",
"% c #F838C0",
"& c none",
"* c #58A0F8",
"= c #F8B890",
"- c #F0C0A0",
"; c white",
/* pixels */
"&&&&&&&&&&&&&&&&",
"&&&&&&&&&&&&&&&&",
"&&&&&&&$$&&&&&&&",
"&&&&&&$%;$&&&&&&",
"&&&&oo####o&&&&&",
"&&.o########o&&&",
"&.o#######;##o&&",
".o############o&",
".ooOOOOOOOOO##o&",
".oO+++++++++O#o&",
".oO++;+++;++O#o&",
".oO++ +++ ++O#o&",
".oO++;+++;++Oo&&",
"&.O+++++++++O.&&",
"&&.OOOOOOOOO.&&&",
"&&@ .......X-&&&",
"&@-  X####XX@-&&",
"&$% X#**;*# $%&&",
"&$$X% +=+ %X$$&&",
"&& %;%X##%;%&&&&",
"&  $%$XX#$%$&&&&",
"&  $$$   $$$&&&&",
"&&  $     $ &&&&",
"&&&        &&&&&"
};
