/* XPM */
static char *result[] = {
/* columns rows colors chars-per-pixel */
"16 24 12 1 ",
"  c #000001",
". c #000030",
"X c #000058",
"o c #000070",
"O c #C88078",
"+ c #0000F8",
"@ c #B80088",
"# c #F838C0",
"$ c none",
"% c #58A0F8",
"& c #F0C0A0",
"* c white",
/* pixels */
"$$$$$$$$$$$$$$$$",
"$$$$$$$$$$$$$$$$",
"$$$$o+++++o$$$$$",
"$$.o++++++++o$$$",
"$.o+++++++*++o$$",
".o++++++++++++o$",
".o+++++@@+++++o$",
".o++++@#*@++++o$",
".oo++o@##@++++o$",
"..oo+o.@@o+++oo$",
"$..ooo...+++o.$$",
"$....ooooooo..$$",
"$$...........$$$",
"$OO .......XOO$$",
"$O& X++%%++XO&$$",
"$@# X++%*%+ @#$$",
"$@@X       X@@$$",
"$$$OXX++%+XO$$$$",
"$$ OOXXX+XO&$$$$",
"$  OO&   OO& $$$",
"   OOO   OOO $$$",
"   @@#   @@# $$$",
"$  @@@   @@@$$$$",
"$$        $$$$$$"
};
