/* XPM */
static char *result[] = {
/* columns rows colors chars-per-pixel */
"16 16 72 1 ",
"  c #2D2D2D",
". c #2F2F2F",
"X c #302F2F",
"o c #302F30",
"O c #2D3330",
"+ c #2C3530",
"@ c gray19",
"# c #313131",
"$ c gray20",
"% c #343434",
"& c #353535",
"* c gray22",
"= c #393939",
"- c gray23",
"; c #3C3B3B",
": c #3F3F3F",
"> c #414141",
", c gray26",
"< c gray27",
"1 c #464646",
"2 c gray28",
"3 c #494949",
"4 c gray29",
"5 c #4B4B4B",
"6 c gray30",
"7 c #505050",
"8 c #515151",
"9 c gray32",
"0 c #535353",
"q c gray34",
"w c #585858",
"e c #5A5A5A",
"r c gray36",
"t c #5D5D5D",
"y c #5F5F5F",
"u c #626262",
"i c gray39",
"p c #656464",
"a c #686868",
"s c DimGray",
"d c gray42",
"f c #6F6F6F",
"g c #727272",
"h c gray45",
"j c gray46",
"k c #767676",
"l c #777777",
"z c gray47",
"x c #797979",
"c c #7B7B7B",
"v c #7E7E7E",
"b c gray50",
"n c #808080",
"m c #818181",
"M c #868686",
"N c gray53",
"B c #888888",
"V c #898989",
"C c gray54",
"Z c gray57",
"A c #929292",
"S c #939393",
"D c gray58",
"F c #959595",
"G c #979797",
"H c gray60",
"J c #A0A0A0",
"K c gray63",
"L c #A2A2A2",
"P c #A5A5A5",
"I c #A7A7A7",
"U c #ACACAC",
/* pixels */
"#3bKIIIIIIIIIIII",
"%jmMNNNNNNNNNNBZ",
"$dbnnnnnnnnnnnnB",
"$ighhhhhhhhhhhhc",
" <22245322222225",
"ytttt-#<wttttttr",
"KKKLU02kGKKKKKKJ",
"vvvvK08lbvvvvvvv",
"aaaaH97saaaaaaaa",
"****>&&=**====**",
"BBBBNBBBBCu@6lBB",
"SSSSSSSAFPl,xVSA",
"bbbbbbbbnHk1vnbb",
"zzzzzzzzkDx:fxzz",
"wwwwwwwwqgp;ewww",
"@@@@@@@@@XO+o@@."
};
