/* XPM */
static char *result[] = {
/* columns rows colors chars-per-pixel */
"16 16 56 1 ",
"  c gray19",
". c #313131",
"X c #323232",
"o c gray20",
"O c gray23",
"+ c #3C3C3C",
"@ c gray25",
"# c gray26",
"$ c #434343",
"% c #444444",
"& c gray27",
"* c #4C4C4C",
"= c gray30",
"- c #4E4E4E",
"; c #555555",
": c gray35",
"> c gray37",
", c #606060",
"< c gray38",
"1 c #626262",
"2 c #6A6A6A",
"3 c #717171",
"4 c #747474",
"5 c gray46",
"6 c #797979",
"7 c gray48",
"8 c #7B7B7B",
"9 c gray50",
"0 c #808080",
"q c #818181",
"w c gray51",
"e c #838383",
"r c #848484",
"t c #898989",
"y c #8D8D8D",
"u c gray56",
"i c #909090",
"p c gray57",
"a c #9A9A9A",
"s c #9B9B9B",
"d c gray63",
"f c #A4A4A4",
"g c #A7A7A7",
"h c #A9A9A9",
"j c #ACACAC",
"k c gray68",
"l c gray69",
"z c #B1B1B1",
"x c gray70",
"c c #BBBBBB",
"v c gray",
"b c #C3C3C3",
"n c #D8D8D8",
"m c #DFDFDF",
"M c gray88",
"N c #E1E1E1",
/* pixels */
"-bmMMMMMMMMMNnlv",
"$,isaaaaaaasdzkv",
"@%29eeeeeeerigjv",
"@#180000000wugjv",
"@$180000000wugjv",
"@$180000000wugjv",
"@$180000000wugjv",
"@$180000000wugjv",
"@$180000000wugjv",
"@$180qqqq00wugjv",
"@$170000009wugjv",
"@$<355555546ygjv",
"@#;::::::::>7fjv",
"@++++++++++O*thv",
"+o          .&pc",
"X            X=x"
};
