/* XPM */
static char *result[] = {
/* columns rows colors chars-per-pixel */
"16 16 6 1 ",
"  c #50C8F8",
". c #60E8F8",
"X c #B0F0F8",
"o c #D0F8F8",
"O c #F8F8F8",
"+ c white",
/* pixels */
"    ...         ",
"  ...X..   ..   ",
" .XX.XXX..XX..  ",
" .XoXoXoXXooXX..",
". .XXooXoXoXXoX.",
" ..XoXOooooXoXXX",
" .XXXooXoOXXXXo ",
"  .oXXoXoooXX..X",
"...XoOoOOOOooX. ",
" .XoXOOOOOoOoX. ",
".XXXXOoOoOOXoXX ",
".XooXoOOoXoXXXoX",
".XXooXoOoXoXoXXX",
" ..XXXooXXoXX.X.",
"   ...X.... X.  ",
"     .    ..    "
};
