/* XPM */
static char *result[] = {
/* columns rows colors chars-per-pixel */
"16 16 8 1 ",
"  c none",
". c #081030",
"X c #F8F8F8",
"o c #D8D8D8",
"O c #08B8D0",
"+ c #008090",
"@ c #60E0F8",
"# c white",
/* pixels */
"                ",
" ... ..Xo.. ... ",
" .oo.OOXo++.oo. ",
" .oOO@oXooO++o. ",
" +.@@@oXooO++.+ ",
" .@@X@+oo+OO++. ",
" .@@@@@++OOO++. ",
" .@@@@@@OOOO++. ",
" .@o.@@@OOO.o+. ",
" .oXX.@OOO.Xoo. ",
" .XXo.OOO+.XXo. ",
" .Xoo.O+++.ooX  ",
"  .++++++++++.  ",
"   ..++++++..   ",
"     ......     ",
"                "
};
