/* XPM */
static char *result[] = {
/* columns rows colors chars-per-pixel */
"16 16 9 1 ",
"  c #684000",
". c none",
"X c #E0A000",
"o c #E8C848",
"O c #F8E090",
"+ c #F8F0C8",
"@ c #F8F8F8",
"# c #B87800",
"$ c white",
/* pixels */
" .XoO++@@@+@+Oo#",
"# XoOO+@@@+OOooX",
"X#XoO++@@@+++Oo#",
"oXXoooOO++OoOoX#",
"XoXoOO+@@@@+ooXX",
"#XoO++@@@@++OoX#",
"#XooO++@@+OOooXX",
".XXoO+@@@@+OOoXo",
" XooooO++@++Ooo ",
"#XooOO+@@@+OOo##",
"# oOO+@@@@+Ooo##",
"##XooO+@++OooXX#",
"X#XoO+@+@@+OOoXX",
"XXXoO++@+@+OooXo",
".XoOO++@@+OooXoX",
".XooO+@@@@+OooX#"
};
