/* XPM */
static char *result[] = {
/* columns rows colors chars-per-pixel */
"16 16 9 1 ",
"  c none",
". c #B87800",
"X c #684000",
"o c #E0A000",
"O c #E8C848",
"+ c #F8E090",
"@ c #F8F0C8",
"# c #F8F8F8",
"$ c white",
/* pixels */
"                ",
".XX...          ",
"oooOooo.        ",
"OOOOOOOooo.     ",
"++O+O+OOOOoo.X  ",
"@@++@++++OOOooo.",
"#@@@#@@@+++OOo. ",
"#@#####@@@@+OOo.",
"#@##@@@@@+++OOOo",
"@@@@@@@++++OOoo.",
"@+++++++OOOOoo. ",
"OOOOOOOOOooo.X  ",
"ooOooOoooo.     ",
"XXo..oo.        ",
"  XX..          ",
"                "
};
