/* XPM */
static char *result[] = {
/* columns rows colors chars-per-pixel */
"16 16 4 1 ",
"  c none",
". c #002000",
"X c #084018",
"o c white",
/* pixels */
"                ",
"                ",
"                ",
"        .       ",
"     . X..      ",
"       XX.      ",
"     .X X X     ",
"     X  XX.X    ",
"    X.X. X.     ",
"       X.       ",
"        X       ",
"       .X.      ",
"         .      ",
"                ",
"                ",
"                "
};
