/* XPM */
static char *result[] = {
/* columns rows colors chars-per-pixel */
"16 16 5 1 ",
"  c #48B068",
". c #70D880",
"X c #A0F0A8",
"o c #D0F8D8",
"O c white",
/* pixels */
" .XXoooooooXoX. ",
"..XooooooooooXX.",
"XXooooooooooooXX",
"Xooooo.ooX..oooX",
"oooooXooo.X.oXoo",
"oooo.XoooooXooXo",
"oooo.oo.oooooooo",
"oooooo.XooXooooo",
"ooooooooooooXooo",
"oooooXoooooXXooo",
"ooXoo.XooooX.ooo",
"ooooo..oooX..ooo",
"XXoooo.ooX..ooXX",
".XooooooXoooooX.",
".XXooooooooooX..",
" .XXooooooooXX. "
};
