/* XPM */
static char *result[] = {
/* columns rows colors chars-per-pixel */
"16 24 16 1 ",
"  c #000001",
". c #480000",
"X c #580000",
"o c #007800",
"O c #A00000",
"+ c #B80000",
"@ c #F83000",
"# c #F84800",
"$ c #00C000",
"% c #A89800",
"& c #A08850",
"* c #C88078",
"= c none",
"- c #F8B890",
"; c #F0C0A0",
": c white",
/* pixels */
"=============oo=",
"============o$:o",
"====OO@@@@O=o$$o",
"==.O@@@@@@@@Ooo=",
"=.O@@@@@@@:@@O==",
"=O@@@@@@@@@@@@O=",
"%%O@@@@@@@@@@@O=",
"=-%%O@@@@@@@@@O=",
"=- -%@@@@@@@@@O=",
"=- -%@@@@@@@@O.=",
"%- -%@@@@@@@O.==",
"=% -%@@@@@@O..==",
"=.%%OO@@@OO..===",
"==........X+====",
"===X+X*;*+:#====",
"===-+X***+# ====",
"===X& o$$  +====",
"====XXo:o++=====",
"==  oXooo+======",
"=   oo**;o =====",
"=     ***  =====",
"=   oooo$$ =====",
"=   ooo$:$======",
"==       ======="
};
