/* XPM */
static char *result[] = {
/* columns rows colors chars-per-pixel */
"16 24 15 1 ",
"  c #000001",
". c #480000",
"X c #580000",
"o c #007800",
"O c #A00000",
"+ c #B80000",
"@ c #F83000",
"# c #00C000",
"$ c #A89800",
"% c #A08850",
"& c #C88078",
"* c none",
"= c #F8B890",
"- c #F0C0A0",
"; c white",
/* pixels */
"****************",
"**oo************",
"*o#;oOO@@@@O****",
"*o#.O@@@@@@@@O**",
"**.O@@@@@@@;@@O*",
"*.O@@@@@@@@@@@@$",
"*.O@@@@@@@@@O$$*",
"*.O@@@@@@$$$$= *",
"*.O@@@@@$== == *",
"*.O@@@@@$== == *",
"**.O@@@@$== == $",
"**..O@@@$== =$$*",
"***...OO.$$$$..*",
"***o  .....oo#**",
"***o X+X&&-o;#**",
"**** X+XX&&ooo**",
"****X      %+*#o",
"*****X+&&+++-*#o",
"***  o&&-++&&-oo",
"*   oo&-    &ooo",
"    oo#      oo*",
"    oo;       **",
"    ooo#     ***",
"**        ******"
};
