/* XPM */
static char *result[] = {
/* columns rows colors chars-per-pixel */
"16 24 13 1 ",
"  c #000001",
". c #480000",
"X c #580000",
"o c #007800",
"O c #A00000",
"+ c #B80000",
"@ c #F83000",
"# c #F84800",
"$ c #00C000",
"% c #C88078",
"& c none",
"* c #F0C0A0",
"= c white",
/* pixels */
"&&&&&&&&&&&&&&&&",
"&&&&O@@@@@O&&&&&",
"&&.O@@@@@@@@O&&&",
"&.O@@@@@@@=@@O&&",
".Ooo@@@@@@@@@@O&",
".o$=o@@@@@@@@@O&",
".o$$o@@@@@@@@@O&",
"..oo@@@@@@@@@@O&",
"...O@@@@@@@@@OO&",
"...OO@@@@@@@OO&&",
"&....OOOOOOO..&&",
"&& .........X*&&",
"&%*  .....XX%%&&",
"&%%%X++##++X%&&&",
"&o$$X++#=#+ &&&&",
"&o*$       X&&&&",
"&oooXXX+++X%&&&&",
"&& %%XXX+X%%&&&&",
"&  ooo   %%* &&&",
"         %%* &&&",
"         %%% &&&",
"&        o$$&&&&",
"&&&      ooo&&&&",
"&&&&&    ooo&&&&"
};
