/* XPM */
static char *result[] = {
/* columns rows colors chars-per-pixel */
"16 16 12 1 ",
"  c black",
". c #480000",
"X c #700000",
"o c #203050",
"O c #900000",
"+ c #B80000",
"@ c #F05800",
"# c #F8A000",
"$ c #6088B0",
"% c none",
"& c #F8F8B0",
"* c #F8F8F8",
/* pixels */
"%%%%%%....%%%%%%",
"%%%%..XXXX..%%%%",
"%%%.XO*OOOX..%%%",
"%%.XO+@@@+X...%%",
"%.X**@...OX....%",
"%XO**..  .OXX..%",
"oXO+@.    .+OX.o",
"oXO+@.   @@@+OXo",
"o.XO++. @&&#@+Oo",
"o..XXXX.@&&#@+Oo",
"o$....X+@###@+$o",
"%o....XO+@@@+Oo%",
"%o$....XO+++O$o%",
"%%o$$...XOO$$o%%",
"%%%oo$$**$$oo%%%",
"%%%%%oooooo%%%%%"
};
