/* XPM */
static char *result[] = {
/* columns rows colors chars-per-pixel */
"16 16 9 1 ",
"  c none",
". c #000870",
"X c #0818A0",
"o c #1060E0",
"O c #08B8F8",
"+ c #90E0F8",
"@ c #F8F8F8",
"# c #000040",
"$ c white",
/* pixels */
"       .X       ",
"     . XXX      ",
"     .XooX.     ",
"     XoOOoX.    ",
"     XoOOoX.    ",
"    .oOO+OoX    ",
"    XoO++OoX.   ",
"   .XoO+++oX.   ",
"   .XOO+@+Oo.   ",
"   XoOO+@+OoX.  ",
"  .ooO+@@++oX.  ",
"  .XoO+@@@+oX.  ",
"  XXoO+@@+OOo.  ",
"  .ooOO+@+OooX  ",
"  #XoO+@+++Oo.  ",
"  .Xo++@@@+Oo.  "
};
