/* XPM */
static char *result[] = {
/* columns rows colors chars-per-pixel */
"16 16 6 1 ",
"  c #1060E0",
". c #08B8F8",
"X c #90E0F8",
"o c #F8F8F8",
"O c #0818A0",
"+ c white",
/* pixels */
"  .XooooooooX.  ",
" ..XXooooooX.  O",
"O .XXoooooXoX.  ",
"O .XoXooooooX.. ",
"O  .XoooooXX.  O",
" ..XooooooooX.  ",
"  ..XoooooooX.. ",
"    .XooooXoXX. ",
"O .XooooooooX.. ",
"  .XXooooooX..  ",
" ..XooooooooXX. ",
" ...XooooooooX  ",
"  ...XooooXX. . ",
" ..XXoooooooX...",
"  ..XooooooXXX. ",
"  .XXXooooooXX. "
};
