/* XPM */
static char *result[] = {
/* columns rows colors chars-per-pixel */
"16 16 9 1 ",
"  c #68A8F8",
". c #00E000",
"X c #000010",
"o c #386078",
"O c #98C8F8",
"+ c #284050",
"@ c #F8F8F8",
"# c #0080A8",
"$ c white",
/* pixels */
"                ",
" .............. ",
" .....XXXX.XX.. ",
" ...XXXXoOXOX.. ",
" ..X+++X@XOXX.. ",
" ..XoooX@XXoX.. ",
" .X#OO#XOOooXX. ",
" .X#OO#oXooXXX. ",
" .X####ooXXX+X. ",
" .Xoooooo++++X. ",
" ..Xoooo++++X.. ",
" ..X++++++++X.. ",
" ...XX++++XX... ",
" .....XXXX..... ",
" .............. ",
"                "
};
