/* XPM */
static char *result[] = {
/* columns rows colors chars-per-pixel */
"16 16 10 1 ",
"  c #68A8F8",
". c #00E000",
"X c #000010",
"o c #F80000",
"O c #386078",
"+ c #0080A8",
"@ c #F8F8F8",
"# c #284050",
"$ c #F8A800",
"% c white",
/* pixels */
"                ",
" .....XooooooX. ",
" .....XO+@ +OX. ",
" ....Xoooo +OX. ",
" .....XO+@ +OX. ",
" ....Xoooo +OX. ",
" ..XXXXO+@ +OX. ",
" .# @@  @@ +OX. ",
" # @        +OX ",
" #++XX++++XX+OX ",
" #+X$$XOOX$$XOX ",
" .X$##$XX$##$XX ",
" .X$##$XX$##$X. ",
" ..X$$X..X$$X.. ",
" ...XX....XX... ",
"                "
};
