/* XPM */
static char *result[] = {
/* columns rows colors chars-per-pixel */
"16 16 7 1 ",
"  c #184000",
". c #287808",
"X c #509820",
"o c #60D030",
"O c none",
"+ c #B8F890",
"@ c #F8F8F8",
/* pixels */
"OOOO        OOOO",
"OO  .XooooX.  OO",
"O .Xo+@@@+ooX. O",
"O Xo+@@@@+oooX O",
" .o+@@@@++oooX. ",
" X+@@@@+++oooXX ",
" o+@@++++oooXXX ",
" o++++++ooooXXX ",
" oo+++oooooXXX. ",
" XooooooooXXXX. ",
" .oooooooXXXX.. ",
"O XooooXXXXX.. O",
"O .XXXXXXXX... O",
"OO .XXXXX.... OO",
"OOO  ......  OOO",
"OOOOO      OOOOO"
};
