/* XPM */
static char *result[] = {
/* columns rows colors chars-per-pixel */
"16 16 10 1 ",
"  c black",
". c #141255",
"X c #4900AA",
"o c #541AC5",
"O c #662CFF",
"+ c #7C49FF",
"@ c #926DFF",
"# c #B692FF",
"$ c #DBB6FF",
"% c white",
/* pixels */
"X#$$$$$$$$#@@@O.",
"+@#######@@%$#oX",
"+@#######@.#@@++",
"+@########@...o+",
"+O@@@@@@@@@@@o.o",
"ooooooooooooooo ",
"XXXXXXXXXXXXXXX.",
"................",
"X#$$$$$$$$#@@@O.",
"+@#######@@%$#oX",
"+@#######@.#@@++",
"+@########@...o+",
"+O@@@@@@@@@@@o.o",
"ooooooooooooooo ",
"XXXXXXXXXXXXXXX.",
"................"
};
