/* XPM */
static char *result[] = {
/* columns rows colors chars-per-pixel */
"16 16 8 1 ",
"  c none",
". c #000838",
"X c #F8F8F8",
"o c #1850D0",
"O c #88A090",
"+ c #4080F0",
"@ c #002868",
"# c white",
/* pixels */
"     ...... .XX ",
"   ..ooooOO.O.  ",
"  .++X+o@X.O..  ",
" .++++++@X..O@. ",
" .+XX+++@OOOO@. ",
".++XX++++@OO@@@.",
".++++++++o@@@@@.",
".++++++++ooo@@@.",
".o++++++oooo@@@.",
".oo++++oooo@@@@.",
".@ooooooooo@@@@.",
" .@ooooooo@@@@. ",
" .@@oooo@@@@@@. ",
"  .@@@@@@@@@@.  ",
"   ..@@@@@@..   ",
"     ......     "
};
