/* XPM */
static char *result[] = {
/* columns rows colors chars-per-pixel */
"16 16 9 1 ",
"  c none",
". c #083890",
"X c #002868",
"o c #1850D0",
"O c #4080F0",
"+ c #40B8F8",
"@ c #98E8F8",
"# c #F8F8F8",
"$ c white",
/* pixels */
"                ",
"                ",
"          ..XX  ",
"        .oo..oXX",
"     .ooooOooOoo",
"  X.oooOOOOOOOOO",
" .ooOOOO+++++++@",
".ooOO++++@@@@@@@",
" .oOO+++@@@#@@@#",
".oooOOO++++@++@@",
"  X.ooOOOO+O+O++",
"     .oooOOOOOOO",
"        .oooOooo",
"          ...XX.",
"                ",
"                "
};
