/* XPM */
static char *result[] = {
/* columns rows colors chars-per-pixel */
"16 16 8 1 ",
"  c none",
". c #083890",
"X c #1850D0",
"o c #4080F0",
"O c #40B8F8",
"+ c #F8F8F8",
"@ c #98E8F8",
"# c white",
/* pixels */
"  .XooO+++@OooX ",
"..XooO@@++@OOoX.",
"oXXoO@@++++@OOoo",
"OooOO@+++++@OOOO",
"@OO@@@++++@@@O@O",
"@@@@@++@++++@@@@",
"@@@@++++++@++@++",
"+++++@@+++++++@@",
"@++++@@++++@+++@",
"@@+@++@+++@@+@@@",
"O@@@++++++@++@OO",
"oOO@@++@+@++@+Oo",
"oXoO@+++++++@OoX",
".XXoO@@++++@OoX.",
". XooO@+++@OoX..",
"  .XoO@@++@OoX. "
};
