/* XPM */
static char *result[] = {
/* columns rows colors chars-per-pixel */
"16 16 9 1 ",
"  c #1850D0",
". c #4080F0",
"X c #083890",
"o c #40B8F8",
"O c #98E8F8",
"+ c #F8F8F8",
"@ c #002868",
"# c none",
"$ c white",
/* pixels */
" .   XX.     ...",
". .. ........o.o",
"...o..ooo.o.oOoO",
"o.oo.ooOooOO.Oo+",
"OoOOoOOOOoO+oOOO",
"+O++O++++O++O+O+",
"++O+O++O++++O+++",
"++++++++++++++++",
"++++++++++++++++",
"+++O+++O++++o++O",
"+OO+O+Oo+O+OoOOO",
"OOOOoOo.OOOo.Ooo",
"oooo.oo.ooOo.oo.",
".o...o....o.....",
"..   ... ..     ",
"   XX@     . X@#"
};
