/* XPM */
static char *result[] = {
/* columns rows colors chars-per-pixel */
"16 16 6 1 ",
"  c #000838",
". c #002868",
"X c #1850D0",
"o c #4080F0",
"O c #F8F8F8",
"+ c None",
/* pixels */
"++++++++++++++++",
"+++++..+++++++++",
"++++.XX.++++++++",
"++..XoXX..++++++",
"+.XooOXXXX.+++++",
".XoXoooXXXX.++++",
".oX.OooXXXoX.+++",
".o.OOooXXXoX.+++",
" Xo.OOoooXooX ++",
" Xo..XoooooXX ++",
" .X...XXX.oXX ++",
" .XX......XX. ++",
"+ .XXX....XX. ++",
"++ ..XXXXXX.. ++",
"+++  ......  +++",
"+++++      +++++"
};
