/* XPM */
static char *result[] = {
/* columns rows colors chars-per-pixel */
"16 16 4 1 ",
"  c #307818",
". c #407010",
"X c #407810",
"o c #488010",
/* pixels */
"oo..XXXXXXXX.Xoo",
"Xoo..XXXXXX.XooX",
" Xoo..XXXX.XooXX",
"X Xoo..XX.XooXXX",
"XX Xoo...XooXXXX",
"XXX Xoo.XooXXXXX",
"XXXX .ooooXXXXXX",
"XXXXX.oooo.XXXXX",
"XXXX.Xoooo..XXXX",
"XXX.XooXXoo..XXX",
"XX.XooXX Xoo..XX",
"X.XooXXXX Xoo..X",
".XooXXXXXX Xoo..",
"XooXXXXXXXX Xoo.",
"ooXXXXXXXXXX .oo",
"oo.XXXXXXXXXX.oo"
};
