/* XPM */
static char *result[] = {
/* columns rows colors chars-per-pixel */
"16 16 7 1 ",
"  c #082808",
". c gray19",
"X c #384040",
"o c #687878",
"O c #889088",
"+ c #C8D0C8",
"@ c #F0F8F0",
/* pixels */
" ...............",
" o++++++++++++O.",
" XO@@@@@@@@@@Oo.",
" Xo@oooooooo@Oo.",
" Xo@O++OO++o@Oo.",
" Xo@Oo+OOo+o@Oo.",
" Xo@OOOOOOOo@Oo.",
" Xo@O++OO++o@Oo.",
" Xo@Oo+OOo+o@Oo.",
" Xo@OOOOOOOo@Oo.",
" Xo@@@@@@@@@@Oo.",
" XoOOOOOOOOOOOo.",
" Xooooooooooooo.",
" XXXXXXXXXXXXXo.",
" ...............",
"               ."
};
