/* XPM */
static char *result[] = {
/* columns rows colors chars-per-pixel */
"16 16 8 1 ",
"  c #082808",
". c gray19",
"X c #184018",
"o c #384040",
"O c #687878",
"+ c #889088",
"@ c #C8D0C8",
"# c #F0F8F0",
/* pixels */
".O############+O",
".O@##########@+O",
".O##@@@@@@@@##+O",
".O#@@@@@@@@@@#+O",
".O#@@@@@@@@@@#+O",
".O#@@@@@@@@@@#+O",
".O#@@@@@@@@@@#+O",
".O#@@@@@@@@@@#+O",
".O#@@@@@@@@@@#+O",
".O##@@@@@@@@##+O",
".O@##########@+O",
".O+++++++++++++O",
".oOOOOOOOOOOOOOO",
"..oooooooooooooo",
"...............o",
"X              X"
};
