/* XPM */
static char *result[] = {
/* columns rows colors chars-per-pixel */
"16 16 9 1 ",
"  c #0ACB0A",
". c #580060",
"X c #780098",
"o c #A808E8",
"O c #380030",
"+ c #C070F8",
"@ c #E0B0F8",
"# c #F8F8F8",
"$ c white",
/* pixels */
"                ",
".XoX...OoX.X..X.",
"XoXXX..oXXXXXooo",
"oXooXoooooooo+o+",
"ooo+oo+++o+o+@+@",
"+o++o++@++@@o@+#",
"@+@@+@@@@+@#+@@@",
"#@##@####@##@###",
"#@@#@#@+#@#@+@@@",
"@@@@+@+o@@@+o@++",
"++++o++o++@+o++o",
"o+ooo+oooo+ooooo",
"ooXXXoooXooXXXXX",
"XXX..OXXXXXoX.O ",
"  XX...O ..XoX.O",
"                "
};
