/* XPM */
static char *result[] = {
/* columns rows colors chars-per-pixel */
"16 16 9 1 ",
"  c #0ACB0A",
". c #580060",
"X c #380030",
"o c #780098",
"O c #A808E8",
"+ c #C070F8",
"@ c #E0B0F8",
"# c #F8F8F8",
"$ c white",
/* pixels */
"                ",
"          ...XX.",
"        .oooOooo",
"     .oooOOOOOOO",
"  X.ooOOOO+O+O++",
".oooOOO++++@++@@",
" .oOO+++@@@#@@@#",
".oOO+@@@@#####@#",
"oOOO+++@@@@@##@#",
".ooOO++++@@@@@@@",
" .ooOOOO+++++++@",
"  X.oooOOOOOOOOO",
"     .ooooOooOoo",
"        .oo..oXX",
"          ..XX  ",
"                "
};
